<svg xmlns="http://www.w3.org/2000/svg" viewBox="0 0 64 64"><g id="_2.sun" data-name="2.sun"><path d="M32.3,26.4c-1.52-.75-9.3-.54-8.45,2.09a1,1,0,0,0,1.34.44,9.15,9.15,0,0,1,6.56-.61A1,1,0,0,0,32.3,26.4Z"/><path d="M21.4,29.24c-.58.49-1.16,1.36-.42,2a1,1,0,0,0,1.41-.11c.12-.14.24-.27.43-.46A1,1,0,0,0,21.4,29.24Z"/><path d="M17.93,35a7.93,7.93,0,0,0-9.29,2.11,1,1,0,1,0,1.52,1.29,5.92,5.92,0,0,1,4.52-2.09c1.23-.28,3,1.4,3.76,0A1,1,0,0,0,17.93,35Z"/><path d="M8.12,39.8c-1.37-.22-1.34,1.52-1.37,2.46a1,1,0,0,0,1,1c1.25,0,.93-1.44,1.14-2.27A1,1,0,0,0,8.12,39.8Z"/><path d="M53.19,30C53.2,18,37.6,13.25,30.94,23.1a14.63,14.63,0,0,0-15,8.34c-15.15-1-16.37,21-1.17,21.71H43.72C52.9,53.28,58,42,52,35.19A12,12,0,0,0,53.19,30ZM41,19.76a10.24,10.24,0,0,1,9.47,14,10.69,10.69,0,0,0-7.91-2.27,14.6,14.6,0,0,0-9.45-7.94A10.25,10.25,0,0,1,41,19.76Zm2.73,31.39H14.8a8.9,8.9,0,0,1-8.89-8.89C6,32.61,19.25,30,23,38.84a1,1,0,1,0,1.84-.77A11,11,0,0,0,18,31.85c4.42-9.06,18.09-9,22.52,0a11,11,0,0,0-6.86,6.22,1,1,0,0,0,1.85.77c3.76-8.87,17.05-6.23,17.1,3.42A8.9,8.9,0,0,1,43.72,51.15Z"/><path d="M41.22,22.81A6,6,0,0,1,44.41,24a1,1,0,0,0,1.4-.21c1-1.91-3.16-2.84-4.47-2.94A1,1,0,0,0,41.22,22.81Z"/><path d="M38.06,21.46c-.79.34-2.05,1-1.41,2s1.52.17,2.23-.18A1,1,0,0,0,38.06,21.46Z"/><path d="M41,16.8a1,1,0,0,0,1-1v-4a1,1,0,0,0-2,0v4A1,1,0,0,0,41,16.8Z"/><path d="M51.29,20.66c.56.21,3.06-2.79,3.5-3.09a1,1,0,0,0-1.42-1.42L50.58,19A1,1,0,0,0,51.29,20.66Z"/><path d="M59.09,29h-4a1,1,0,0,0,0,2h4A1,1,0,0,0,59.09,29Z"/><path d="M30,20.36c.9.93,2.35-.51,1.42-1.41l-2.8-2.8a1,1,0,0,0-1.41,0,1,1,0,0,0,0,1.42Z"/></g></svg>