<svg xmlns="http://www.w3.org/2000/svg" viewBox="0 0 64 64"><g id="_37.moon" data-name="37.moon"><path d="M34.31,23.3c-1.54-.8-9.87-.53-9,2.14a1,1,0,0,0,.9.55,11,11,0,0,1,7.52-.76A1,1,0,0,0,34.31,23.3Z"/><path d="M22.71,26.33c-.92.67-1.26,2.09.19,2.27.58,0,.81-.45,1.21-.85C25.05,26.86,23.62,25.4,22.71,26.33Z"/><path d="M18.91,32.54A8.42,8.42,0,0,0,9,34.78a1,1,0,0,0,.11,1.4,1,1,0,0,0,1.41-.11,6.45,6.45,0,0,1,7.53-1.71A1,1,0,0,0,18.91,32.54Z"/><path d="M8.42,37.66C7,37.44,7.08,39.26,7,40.22a1,1,0,0,0,1,1c1.29,0,.91-1.52,1.15-2.37A1,1,0,0,0,8.42,37.66Z"/><path d="M59.94,26.59a1,1,0,0,0-1.1-1.35c-6.39,1.28-12.06-5.71-9.55-11.69a1,1,0,0,0-1.1-1.35A10.67,10.67,0,0,0,39.27,22c-7.59-4.92-18.79-1.62-22.38,6.73C.72,27.58-.61,51.09,15.58,51.82h31C56.65,52,62,39.3,54.92,32.2A10.62,10.62,0,0,0,59.94,26.59ZM56.15,40.22a9.62,9.62,0,0,1-9.6,9.6h-31A9.61,9.61,0,0,1,6,40.22C6.05,29.81,20.38,27,24.44,36.53a1,1,0,0,0,1.85-.77,11.65,11.65,0,0,0-7.39-6.63c4.75-9.86,19.58-9.86,24.33,0a11.66,11.66,0,0,0-7.38,6.63,1,1,0,0,0,1.85.77,9.6,9.6,0,0,1,18.45,3.69Zm-2.88-9.44a11.47,11.47,0,0,0-8-2.06,15.62,15.62,0,0,0-4-5.27,8.64,8.64,0,0,1,5.62-8.86c-1.39,6.35,3.91,12.89,10.42,12.77A8.6,8.6,0,0,1,53.27,30.78Z"/></g></svg>